<?xml version="1.0" encoding="UTF-8" standalone="no"?>
<!DOCTYPE svg PUBLIC "-//W3C//DTD SVG 1.1//EN"
 "http://www.w3.org/Graphics/SVG/1.1/DTD/svg11.dtd">
<!-- Generated by graphviz version 2.38.0 (20140413.2041)
 -->
<!-- Title: graphname Pages: 1 -->
<svg width="2028pt" height="537pt"
 viewBox="0.00 0.00 2028.18 537.00" xmlns="http://www.w3.org/2000/svg" xmlns:xlink="http://www.w3.org/1999/xlink">
<g id="graph0" class="graph" transform="scale(1 1) rotate(0) translate(4 533)">
<title>graphname</title>
<polygon fill="white" stroke="none" points="-4,4 -4,-533 2024.18,-533 2024.18,4 -4,4"/>
<g id="clust1" class="cluster"><title>cluster_0</title>
<polygon fill="none" stroke="black" points="8,-316 8,-462 379.273,-462 379.273,-316 8,-316"/>
<text text-anchor="middle" x="193.636" y="-446.8" font-family="Times,serif" font-size="14.00">自動化開始のためのパターン</text>
</g>
<g id="clust4" class="cluster"><title>cluster_1</title>
<polygon fill="none" stroke="black" points="399.273,-139 399.273,-521 1166.7,-521 1166.7,-139 399.273,-139"/>
<text text-anchor="middle" x="782.987" y="-505.8" font-family="Times,serif" font-size="14.00">自動化導入期のパターン</text>
</g>
<g id="clust8" class="cluster"><title>cluster_2</title>
<polygon fill="none" stroke="black" points="1186.7,-96 1186.7,-419 2012.18,-419 2012.18,-96 1186.7,-96"/>
<text text-anchor="middle" x="1599.44" y="-403.8" font-family="Times,serif" font-size="14.00">自動化の定着、あるいは終焉のパターン</text>
</g>
<!-- 求む！英雄 -->
<g id="node1" class="node"><title>求む！英雄</title>
<ellipse fill="#7fc97f" stroke="#7fc97f" cx="76.8112" cy="-345" rx="60.623" ry="20.5123"/>
<text text-anchor="middle" x="76.8112" y="-344.3" font-family="Times,serif" font-size="14.00">求む！英雄</text>
</g>
<!-- ３分クッキング -->
<g id="node2" class="node"><title>３分クッキング</title>
<ellipse fill="#7fc97f" stroke="#7fc97f" cx="272.448" cy="-404" rx="80.0324" ry="20.5123"/>
<text text-anchor="middle" x="272.448" y="-403.3" font-family="Times,serif" font-size="14.00">３分クッキング</text>
</g>
<!-- 求む！英雄&#45;&gt;３分クッキング -->
<g id="edge1" class="edge"><title>求む！英雄&#45;&gt;３分クッキング</title>
<path fill="none" stroke="black" d="M121.649,-358.881C137.951,-364.002 156.616,-369.817 173.622,-375 185.139,-378.51 197.437,-382.2 209.288,-385.728"/>
<polygon fill="black" stroke="black" points="208.529,-389.154 219.112,-388.645 210.522,-382.443 208.529,-389.154"/>
</g>
<!-- インディジョーンズ -->
<g id="node3" class="node"><title>インディジョーンズ</title>
<ellipse fill="#7fc97f" stroke="#7fc97f" cx="272.448" cy="-345" rx="98.6508" ry="20.5123"/>
<text text-anchor="middle" x="272.448" y="-344.3" font-family="Times,serif" font-size="14.00">インディジョーンズ</text>
</g>
<!-- 求む！英雄&#45;&gt;インディジョーンズ -->
<g id="edge7" class="edge"><title>求む！英雄&#45;&gt;インディジョーンズ</title>
<path fill="none" stroke="black" d="M137.753,-345C145.896,-345 154.448,-345 163.125,-345"/>
<polygon fill="black" stroke="black" points="163.352,-348.5 173.352,-345 163.352,-341.5 163.352,-348.5"/>
</g>
<!-- 強くてニューゲーム -->
<g id="node25" class="node"><title>強くてニューゲーム</title>
<ellipse fill="#7fc97f" stroke="#7fc97f" cx="1904.77" cy="-125" rx="99.3385" ry="20.5123"/>
<text text-anchor="middle" x="1904.77" y="-124.3" font-family="Times,serif" font-size="14.00">強くてニューゲーム</text>
</g>
<!-- 求む！英雄&#45;&gt;強くてニューゲーム -->
<g id="edge10" class="edge"><title>求む！英雄&#45;&gt;強くてニューゲーム</title>
<path fill="none" stroke="black" d="M88.6461,-324.707C129.761,-250.754 284.119,-0 486.883,-0 486.883,-0 486.883,-0 1335.71,-0 1526.47,-0 1745.02,-68.0648 1846.47,-103.742"/>
<polygon fill="black" stroke="black" points="1845.32,-107.049 1855.92,-107.091 1847.66,-100.451 1845.32,-107.049"/>
</g>
<!-- 全体像を描く -->
<g id="node4" class="node"><title>全体像を描く</title>
<ellipse fill="#7fc97f" stroke="#7fc97f" cx="487.883" cy="-345" rx="70.922" ry="20.5123"/>
<text text-anchor="middle" x="487.883" y="-344.3" font-family="Times,serif" font-size="14.00">全体像を描く</text>
</g>
<!-- ３分クッキング&#45;&gt;全体像を描く -->
<g id="edge11" class="edge"><title>３分クッキング&#45;&gt;全体像を描く</title>
<path fill="none" stroke="black" d="M327.84,-389.144C344.362,-384.618 362.564,-379.618 379.273,-375 394.531,-370.783 410.998,-366.205 426.353,-361.925"/>
<polygon fill="black" stroke="black" points="427.567,-365.22 436.259,-359.163 425.686,-358.478 427.567,-365.22"/>
</g>
<!-- クラウドトーク -->
<g id="node6" class="node"><title>クラウドトーク</title>
<ellipse fill="#f0027f" stroke="#f0027f" cx="487.883" cy="-463" rx="80.7205" ry="20.5123"/>
<text text-anchor="middle" x="487.883" y="-462.3" font-family="Times,serif" font-size="14.00">クラウドトーク</text>
</g>
<!-- ３分クッキング&#45;&gt;クラウドトーク -->
<g id="edge2" class="edge"><title>３分クッキング&#45;&gt;クラウドトーク</title>
<path fill="none" stroke="black" d="M327.582,-418.964C356.557,-426.974 392.426,-436.889 422.787,-445.282"/>
<polygon fill="black" stroke="black" points="421.864,-448.658 432.435,-447.949 423.729,-441.911 421.864,-448.658"/>
</g>
<!-- 自動化ハイ -->
<g id="node7" class="node"><title>自動化ハイ</title>
<ellipse fill="#f0027f" stroke="#f0027f" cx="487.883" cy="-404" rx="60.623" ry="20.5123"/>
<text text-anchor="middle" x="487.883" y="-403.3" font-family="Times,serif" font-size="14.00">自動化ハイ</text>
</g>
<!-- ３分クッキング&#45;&gt;自動化ハイ -->
<g id="edge12" class="edge"><title>３分クッキング&#45;&gt;自動化ハイ</title>
<path fill="none" stroke="black" d="M352.62,-404C373.628,-404 396.165,-404 416.66,-404"/>
<polygon fill="black" stroke="black" points="416.856,-407.5 426.856,-404 416.856,-400.5 416.856,-407.5"/>
</g>
<!-- インディジョーンズ&#45;&gt;全体像を描く -->
<g id="edge8" class="edge"><title>インディジョーンズ&#45;&gt;全体像を描く</title>
<path fill="none" stroke="black" d="M371.42,-345C383.286,-345 395.298,-345 406.862,-345"/>
<polygon fill="black" stroke="black" points="406.895,-348.5 416.895,-345 406.895,-341.5 406.895,-348.5"/>
</g>
<!-- インディジョーンズ&#45;&gt;自動化ハイ -->
<g id="edge13" class="edge"><title>インディジョーンズ&#45;&gt;自動化ハイ</title>
<path fill="none" stroke="black" d="M333.066,-361.288C348.146,-365.422 364.308,-369.864 379.273,-374 395.915,-378.6 413.995,-383.629 430.502,-388.231"/>
<polygon fill="black" stroke="black" points="429.976,-391.718 440.549,-391.035 431.857,-384.976 429.976,-391.718"/>
</g>
<!-- ダッシュボード -->
<g id="node5" class="node"><title>ダッシュボード</title>
<ellipse fill="#7fc97f" stroke="#7fc97f" cx="723.59" cy="-286" rx="79.0525" ry="20.5123"/>
<text text-anchor="middle" x="723.59" y="-285.3" font-family="Times,serif" font-size="14.00">ダッシュボード</text>
</g>
<!-- 全体像を描く&#45;&gt;ダッシュボード -->
<g id="edge14" class="edge"><title>全体像を描く&#45;&gt;ダッシュボード</title>
<path fill="none" stroke="black" d="M540.929,-331.34C560.805,-326.164 583.685,-320.254 604.493,-315 620.851,-310.869 638.504,-306.492 655.05,-302.424"/>
<polygon fill="black" stroke="black" points="656.31,-305.718 665.188,-299.936 654.642,-298.92 656.31,-305.718"/>
</g>
<!-- まずは”効く”ところから -->
<g id="node11" class="node"><title>まずは”効く”ところから</title>
<ellipse fill="#7fc97f" stroke="#7fc97f" cx="723.59" cy="-226" rx="119.193" ry="21.5881"/>
<text text-anchor="middle" x="723.59" y="-226.21" font-family="Times,serif" font-size="14.00">まずは”効く”ところから</text>
</g>
<!-- 全体像を描く&#45;&gt;まずは”効く”ところから -->
<g id="edge9" class="edge"><title>全体像を描く&#45;&gt;まずは”効く”ところから</title>
<path fill="none" stroke="black" d="M541.728,-331.525C551.272,-327.544 560.664,-322.46 568.493,-316 592.481,-296.208 579.541,-274.561 604.493,-256 610.503,-251.53 617.109,-247.722 624.032,-244.479"/>
<polygon fill="black" stroke="black" points="625.806,-247.529 633.642,-240.398 623.07,-241.085 625.806,-247.529"/>
</g>
<!-- もっと、人間らしく -->
<g id="node20" class="node"><title>もっと、人間らしく</title>
<ellipse fill="#7fc97f" stroke="#7fc97f" cx="1334.71" cy="-184" rx="100.224" ry="20.5123"/>
<text text-anchor="middle" x="1334.71" y="-183.3" font-family="Times,serif" font-size="14.00">もっと、人間らしく</text>
</g>
<!-- 全体像を描く&#45;&gt;もっと、人間らしく -->
<g id="edge15" class="edge"><title>全体像を描く&#45;&gt;もっと、人間らしく</title>
<path fill="none" stroke="black" d="M1019.69,-176C1089.89,-170.917 1169.12,-172.993 1230.44,-176.301"/>
<polygon fill="black" stroke="black" points="1230.33,-179.8 1240.51,-176.864 1230.72,-172.811 1230.33,-179.8"/>
</g>
<!-- テストだけとか勿体無い！ -->
<g id="node22" class="node"><title>テストだけとか勿体無い！</title>
<ellipse fill="#7fc97f" stroke="#7fc97f" cx="1640.03" cy="-218" rx="129.132" ry="20.5123"/>
<text text-anchor="middle" x="1640.03" y="-217.3" font-family="Times,serif" font-size="14.00">テストだけとか勿体無い！</text>
</g>
<!-- 全体像を描く&#45;&gt;テストだけとか勿体無い！ -->
<g id="edge16" class="edge"><title>全体像を描く&#45;&gt;テストだけとか勿体無い！</title>
<path fill="none" stroke="black" d="M1019.69,-176C1101.97,-170.043 1106.3,-113.469 1186.7,-95 1311.46,-66.3422 1363.32,-31.9314 1474.71,-95 1501.78,-110.322 1487.82,-133.953 1510.71,-155 1529.18,-171.974 1553.06,-185.365 1575.21,-195.356"/>
<polygon fill="black" stroke="black" points="1574.01,-198.65 1584.57,-199.43 1576.8,-192.231 1574.01,-198.65"/>
<path fill="none" stroke="black" d="M544.349,-332.469C553.323,-328.419 561.838,-323.068 568.493,-316 606.956,-275.151 560.299,-229.568 604.493,-195 749.297,-81.7369 834.314,-188.991 1017.69,-176"/>
</g>
<!-- ビッグバン自動化 -->
<g id="node8" class="node"><title>ビッグバン自動化</title>
<ellipse fill="#f0027f" stroke="#f0027f" cx="723.59" cy="-463" rx="88.8516" ry="20.5123"/>
<text text-anchor="middle" x="723.59" y="-462.3" font-family="Times,serif" font-size="14.00">ビッグバン自動化</text>
</g>
<!-- クラウドトーク&#45;&gt;ビッグバン自動化 -->
<g id="edge18" class="edge"><title>クラウドトーク&#45;&gt;ビッグバン自動化</title>
<path fill="none" stroke="black" d="M568.658,-463C586.509,-463 605.649,-463 624.156,-463"/>
<polygon fill="black" stroke="black" points="624.36,-466.5 634.36,-463 624.36,-459.5 624.36,-466.5"/>
</g>
<!-- ついで症候群 -->
<g id="node9" class="node"><title>ついで症候群</title>
<ellipse fill="#f0027f" stroke="#f0027f" cx="723.59" cy="-404" rx="70.3275" ry="20.5123"/>
<text text-anchor="middle" x="723.59" y="-403.3" font-family="Times,serif" font-size="14.00">ついで症候群</text>
</g>
<!-- クラウドトーク&#45;&gt;ついで症候群 -->
<g id="edge19" class="edge"><title>クラウドトーク&#45;&gt;ついで症候群</title>
<path fill="none" stroke="black" d="M544.708,-448.356C563.67,-443.424 584.991,-437.924 604.493,-433 622.118,-428.55 641.246,-423.812 658.873,-419.485"/>
<polygon fill="black" stroke="black" points="660.175,-422.769 669.055,-416.989 658.509,-415.97 660.175,-422.769"/>
</g>
<!-- 建て増し旅館 -->
<g id="node10" class="node"><title>建て増し旅館</title>
<ellipse fill="#f0027f" stroke="#f0027f" cx="723.59" cy="-345" rx="70.922" ry="20.5123"/>
<text text-anchor="middle" x="723.59" y="-344.3" font-family="Times,serif" font-size="14.00">建て増し旅館</text>
</g>
<!-- クラウドトーク&#45;&gt;建て増し旅館 -->
<g id="edge3" class="edge"><title>クラウドトーク&#45;&gt;建て増し旅館</title>
<path fill="none" stroke="black" d="M544.627,-448.279C553.162,-444.498 561.459,-439.804 568.493,-434 592.481,-414.208 579.468,-392.462 604.493,-374 616.897,-364.85 631.831,-358.56 646.843,-354.243"/>
<polygon fill="black" stroke="black" points="647.896,-357.586 656.693,-351.681 646.134,-350.811 647.896,-357.586"/>
</g>
<!-- 自動化ハイ&#45;&gt;建て増し旅館 -->
<g id="edge20" class="edge"><title>自動化ハイ&#45;&gt;建て増し旅館</title>
<path fill="none" stroke="black" d="M536.377,-391.526C557.255,-386.081 582.076,-379.661 604.493,-374 622.032,-369.571 641.06,-364.858 658.616,-360.548"/>
<polygon fill="black" stroke="black" points="659.88,-363.841 668.76,-358.061 658.214,-357.043 659.88,-363.841"/>
</g>
<!-- 信頼性バトル -->
<g id="node13" class="node"><title>信頼性バトル</title>
<ellipse fill="#7fc97f" stroke="#7fc97f" cx="1018.69" cy="-463" rx="70.1299" ry="20.5123"/>
<text text-anchor="middle" x="1018.69" y="-462.3" font-family="Times,serif" font-size="14.00">信頼性バトル</text>
</g>
<!-- ビッグバン自動化&#45;&gt;信頼性バトル -->
<g id="edge22" class="edge"><title>ビッグバン自動化&#45;&gt;信頼性バトル</title>
<path fill="none" stroke="black" d="M812.53,-463C852.312,-463 898.992,-463 937.767,-463"/>
<polygon fill="black" stroke="black" points="937.962,-466.5 947.962,-463 937.962,-459.5 937.962,-466.5"/>
</g>
<!-- テスト仕分け -->
<g id="node12" class="node"><title>テスト仕分け</title>
<ellipse fill="#7fc97f" stroke="#7fc97f" cx="1018.69" cy="-404" rx="69.8375" ry="20.5123"/>
<text text-anchor="middle" x="1018.69" y="-403.3" font-family="Times,serif" font-size="14.00">テスト仕分け</text>
</g>
<!-- ついで症候群&#45;&gt;テスト仕分け -->
<g id="edge25" class="edge"><title>ついで症候群&#45;&gt;テスト仕分け</title>
<path fill="none" stroke="black" d="M794.051,-404C837.489,-404 893.558,-404 938.689,-404"/>
<polygon fill="black" stroke="black" points="938.73,-407.5 948.73,-404 938.73,-400.5 938.73,-407.5"/>
</g>
<!-- アンチ自動化 -->
<g id="node18" class="node"><title>アンチ自動化</title>
<ellipse fill="#f0027f" stroke="#f0027f" cx="1334.71" cy="-302" rx="70.922" ry="20.5123"/>
<text text-anchor="middle" x="1334.71" y="-301.3" font-family="Times,serif" font-size="14.00">アンチ自動化</text>
</g>
<!-- ついで症候群&#45;&gt;アンチ自動化 -->
<g id="edge24" class="edge"><title>ついで症候群&#45;&gt;アンチ自動化</title>
<path fill="none" stroke="black" d="M790.486,-397.319C808.685,-393.058 827.566,-386.154 842.686,-375 867.712,-356.538 851.846,-330.707 878.686,-315 940.612,-278.76 1143.62,-287.39 1256.41,-295.47"/>
<polygon fill="black" stroke="black" points="1256.47,-298.984 1266.7,-296.223 1256.98,-292.002 1256.47,-298.984"/>
</g>
<!-- ヤブ医者とブラックジャック -->
<g id="node14" class="node"><title>ヤブ医者とブラックジャック</title>
<ellipse fill="#7fc97f" stroke="#7fc97f" cx="1018.69" cy="-345" rx="140.014" ry="20.5123"/>
<text text-anchor="middle" x="1018.69" y="-344.3" font-family="Times,serif" font-size="14.00">ヤブ医者とブラックジャック</text>
</g>
<!-- 建て増し旅館&#45;&gt;ヤブ医者とブラックジャック -->
<g id="edge4" class="edge"><title>建て増し旅館&#45;&gt;ヤブ医者とブラックジャック</title>
<path fill="none" stroke="black" d="M794.423,-345C816.77,-345 842.432,-345 868.215,-345"/>
<polygon fill="black" stroke="black" points="868.482,-348.5 878.482,-345 868.482,-341.5 868.482,-348.5"/>
</g>
<!-- 験担ぎ -->
<g id="node23" class="node"><title>験担ぎ</title>
<ellipse fill="#f0027f" stroke="#f0027f" cx="1334.71" cy="-243" rx="41.0244" ry="20.5123"/>
<text text-anchor="middle" x="1334.71" y="-242.3" font-family="Times,serif" font-size="14.00">験担ぎ</text>
</g>
<!-- 建て増し旅館&#45;&gt;験担ぎ -->
<g id="edge21" class="edge"><title>建て増し旅館&#45;&gt;験担ぎ</title>
<path fill="none" stroke="black" d="M787.197,-335.913C805.798,-331.581 825.722,-325.241 842.686,-316 862.012,-305.472 858.601,-290.997 878.686,-282 1015.49,-220.716 1198.41,-228.681 1284.71,-237.035"/>
<polygon fill="black" stroke="black" points="1284.44,-240.526 1294.75,-238.052 1285.15,-233.562 1284.44,-240.526"/>
</g>
<!-- まずは”効く”ところから&#45;&gt;ダッシュボード -->
<g id="edge17" class="edge"><title>まずは”効く”ところから&#45;&gt;ダッシュボード</title>
<path fill="none" stroke="black" d="M723.59,-248.031C723.59,-250.361 723.59,-252.691 723.59,-255.021"/>
<polygon fill="black" stroke="black" points="720.09,-255.236 723.59,-265.236 727.09,-255.236 720.09,-255.236"/>
</g>
<!-- 俺たち全員ブラックジャック -->
<g id="node21" class="node"><title>俺たち全員ブラックジャック</title>
<ellipse fill="#7fc97f" stroke="#7fc97f" cx="1334.71" cy="-361" rx="140.014" ry="20.5123"/>
<text text-anchor="middle" x="1334.71" y="-360.3" font-family="Times,serif" font-size="14.00">俺たち全員ブラックジャック</text>
</g>
<!-- 信頼性バトル&#45;&gt;俺たち全員ブラックジャック -->
<g id="edge23" class="edge"><title>信頼性バトル&#45;&gt;俺たち全員ブラックジャック</title>
<path fill="none" stroke="black" d="M1081.95,-453.804C1108.41,-449.107 1139.39,-442.55 1166.7,-434 1208.06,-421.049 1252.98,-401.058 1285.8,-385.268"/>
<polygon fill="black" stroke="black" points="1287.68,-388.243 1295.15,-380.725 1284.63,-381.946 1287.68,-388.243"/>
</g>
<!-- ヤブ医者とブラックジャック&#45;&gt;俺たち全員ブラックジャック -->
<g id="edge5" class="edge"><title>ヤブ医者とブラックジャック&#45;&gt;俺たち全員ブラックジャック</title>
<path fill="none" stroke="black" d="M1151.04,-351.693C1164.5,-352.379 1178.22,-353.078 1191.79,-353.769"/>
<polygon fill="black" stroke="black" points="1191.96,-357.282 1202.13,-354.296 1192.32,-350.291 1191.96,-357.282"/>
</g>
<!-- 皮をむく -->
<g id="node15" class="node"><title>皮をむく</title>
<ellipse fill="#7fc97f" stroke="#7fc97f" cx="487.883" cy="-286" rx="50.8235" ry="20.5123"/>
<text text-anchor="middle" x="487.883" y="-285.3" font-family="Times,serif" font-size="14.00">皮をむく</text>
</g>
<!-- ピンを生やす -->
<g id="node16" class="node"><title>ピンを生やす</title>
<ellipse fill="#7fc97f" stroke="#7fc97f" cx="487.883" cy="-227" rx="70.922" ry="20.5123"/>
<text text-anchor="middle" x="487.883" y="-226.3" font-family="Times,serif" font-size="14.00">ピンを生やす</text>
</g>
<!-- 皮もおいしく -->
<g id="node17" class="node"><title>皮もおいしく</title>
<ellipse fill="#7fc97f" stroke="#7fc97f" cx="487.883" cy="-168" rx="70.3275" ry="20.5123"/>
<text text-anchor="middle" x="487.883" y="-167.3" font-family="Times,serif" font-size="14.00">皮もおいしく</text>
</g>
<!-- 原住民蜂起 -->
<g id="node24" class="node"><title>原住民蜂起</title>
<ellipse fill="#f0027f" stroke="#f0027f" cx="1640.03" cy="-125" rx="60.623" ry="20.5123"/>
<text text-anchor="middle" x="1640.03" y="-124.3" font-family="Times,serif" font-size="14.00">原住民蜂起</text>
</g>
<!-- アンチ自動化&#45;&gt;原住民蜂起 -->
<g id="edge29" class="edge"><title>アンチ自動化&#45;&gt;原住民蜂起</title>
<path fill="none" stroke="black" d="M1405.36,-300.422C1429.53,-296.736 1455.38,-288.888 1474.71,-273 1506.41,-246.951 1482.52,-217.808 1510.71,-188 1530.6,-166.975 1558.99,-152.033 1584.01,-141.994"/>
<polygon fill="black" stroke="black" points="1585.33,-145.237 1593.41,-138.385 1582.82,-138.702 1585.33,-145.237"/>
</g>
<!-- 文明の曙 -->
<g id="node19" class="node"><title>文明の曙</title>
<ellipse fill="#7fc97f" stroke="#7fc97f" cx="1904.77" cy="-218" rx="50.8235" ry="20.5123"/>
<text text-anchor="middle" x="1904.77" y="-217.3" font-family="Times,serif" font-size="14.00">文明の曙</text>
</g>
<!-- 俺たち全員ブラックジャック&#45;&gt;文明の曙 -->
<g id="edge6" class="edge"><title>俺たち全員ブラックジャック&#45;&gt;文明の曙</title>
<path fill="none" stroke="black" d="M1418.56,-344.48C1437.08,-340.575 1456.6,-336.292 1474.71,-332 1612.26,-299.404 1772.94,-255.001 1853.01,-232.439"/>
<polygon fill="black" stroke="black" points="1854.16,-235.751 1862.83,-229.666 1852.26,-229.014 1854.16,-235.751"/>
</g>
<!-- テストだけとか勿体無い！&#45;&gt;文明の曙 -->
<g id="edge26" class="edge"><title>テストだけとか勿体無い！&#45;&gt;文明の曙</title>
<path fill="none" stroke="black" d="M1769.7,-218C1795.52,-218 1821.47,-218 1843.58,-218"/>
<polygon fill="black" stroke="black" points="1843.77,-221.5 1853.77,-218 1843.77,-214.5 1843.77,-221.5"/>
</g>
<!-- 験担ぎ&#45;&gt;アンチ自動化 -->
<g id="edge28" class="edge"><title>験担ぎ&#45;&gt;アンチ自動化</title>
<path fill="none" stroke="black" d="M1334.71,-263.742C1334.71,-266.222 1334.71,-268.702 1334.71,-271.182"/>
<polygon fill="black" stroke="black" points="1331.21,-271.377 1334.71,-281.377 1338.21,-271.377 1331.21,-271.377"/>
</g>
<!-- 原住民蜂起&#45;&gt;インディジョーンズ -->
<g id="edge30" class="edge"><title>原住民蜂起&#45;&gt;インディジョーンズ</title>
<path fill="none" stroke="black" d="M1607.12,-107.539C1574.82,-90.8515 1522.89,-66.6997 1474.71,-56 1277.14,-12.1189 1222.08,-38 1019.69,-38 722.59,-38 722.59,-38 722.59,-38 572.566,-38 517.677,-42.8721 399.273,-135 337.994,-182.68 300.098,-269.25 283.419,-314.925"/>
<polygon fill="black" stroke="black" points="280.048,-313.957 279.997,-324.552 286.644,-316.302 280.048,-313.957"/>
</g>
<!-- 原住民蜂起&#45;&gt;強くてニューゲーム -->
<g id="edge31" class="edge"><title>原住民蜂起&#45;&gt;強くてニューゲーム</title>
<path fill="none" stroke="black" d="M1700.98,-125C1728.79,-125 1762.73,-125 1794.84,-125"/>
<polygon fill="black" stroke="black" points="1795.19,-128.5 1805.19,-125 1795.19,-121.5 1795.19,-128.5"/>
</g>
<!-- 自動家を作る -->
<g id="node26" class="node"><title>自動家を作る</title>
<ellipse fill="#7fc97f" stroke="#7fc97f" cx="1334.71" cy="-125" rx="70.922" ry="20.5123"/>
<text text-anchor="middle" x="1334.71" y="-124.3" font-family="Times,serif" font-size="14.00">自動家を作る</text>
</g>
</g>
</svg>
