<?xml version="1.0" encoding="UTF-8" standalone="no"?>
<!DOCTYPE svg PUBLIC "-//W3C//DTD SVG 1.1//EN"
 "http://www.w3.org/Graphics/SVG/1.1/DTD/svg11.dtd">
<!-- Generated by graphviz version 2.36.0 (20140111.2315)
 -->
<!-- Title: graphname Pages: 1 -->
<svg width="2032pt" height="478pt"
 viewBox="0.00 0.00 2032.00 478.00" xmlns="http://www.w3.org/2000/svg" xmlns:xlink="http://www.w3.org/1999/xlink">
<g id="graph0" class="graph" transform="scale(1 1) rotate(0) translate(4 474)">
<title>graphname</title>
<polygon fill="white" stroke="none" points="-4,4 -4,-474 2028,-474 2028,4 -4,4"/>
<g id="clust1" class="cluster"><title>cluster_0</title>
<polygon fill="none" stroke="black" points="8,-138 8,-284 380,-284 380,-138 8,-138"/>
<text text-anchor="middle" x="194" y="-268.8" font-family="Times,serif" font-size="14.00">自動化開始のためのパターン</text>
</g>
<g id="clust4" class="cluster"><title>cluster_1</title>
<polygon fill="none" stroke="black" points="400,-137 400,-462 1168,-462 1168,-137 400,-137"/>
<text text-anchor="middle" x="784" y="-446.8" font-family="Times,serif" font-size="14.00">自動化導入期のパターン</text>
</g>
<g id="clust8" class="cluster"><title>cluster_2</title>
<polygon fill="none" stroke="black" points="1188,-96 1188,-360 2016,-360 2016,-96 1188,-96"/>
<text text-anchor="middle" x="1602" y="-344.8" font-family="Times,serif" font-size="14.00">自動化の定着、あるいは終焉のパターン</text>
</g>
<!-- 求む！英雄 -->
<g id="node1" class="node"><title>求む！英雄</title>
<ellipse fill="#7fc97f" stroke="#7fc97f" cx="77" cy="-167" rx="60.623" ry="20.5123"/>
<text text-anchor="middle" x="77" y="-166.3" font-family="Times,serif" font-size="14.00">求む！英雄</text>
</g>
<!-- ３分クッキング -->
<g id="node2" class="node"><title>３分クッキング</title>
<ellipse fill="#7fc97f" stroke="#7fc97f" cx="273" cy="-226" rx="80.0324" ry="20.5123"/>
<text text-anchor="middle" x="273" y="-225.3" font-family="Times,serif" font-size="14.00">３分クッキング</text>
</g>
<!-- 求む！英雄&#45;&gt;３分クッキング -->
<g id="edge1" class="edge"><title>求む！英雄&#45;&gt;３分クッキング</title>
<path fill="none" stroke="black" d="M122.508,-180.536C148.825,-188.54 182.521,-198.787 211.257,-207.527"/>
<polygon fill="black" stroke="black" points="210.608,-210.988 221.194,-210.549 212.645,-204.29 210.608,-210.988"/>
</g>
<!-- インディジョーンズ -->
<g id="node3" class="node"><title>インディジョーンズ</title>
<ellipse fill="#7fc97f" stroke="#7fc97f" cx="273" cy="-167" rx="98.6508" ry="20.5123"/>
<text text-anchor="middle" x="273" y="-166.3" font-family="Times,serif" font-size="14.00">インディジョーンズ</text>
</g>
<!-- 求む！英雄&#45;&gt;インディジョーンズ -->
<g id="edge7" class="edge"><title>求む！英雄&#45;&gt;インディジョーンズ</title>
<path fill="none" stroke="black" d="M138.054,-167C146.382,-167 155.137,-167 164.016,-167"/>
<polygon fill="black" stroke="black" points="164.078,-170.5 174.078,-167 164.078,-163.5 164.078,-170.5"/>
</g>
<!-- 強くてニューゲーム -->
<g id="node22" class="node"><title>強くてニューゲーム</title>
<ellipse fill="#7fc97f" stroke="#7fc97f" cx="1908" cy="-125" rx="99.3385" ry="20.5123"/>
<text text-anchor="middle" x="1908" y="-124.3" font-family="Times,serif" font-size="14.00">強くてニューゲーム</text>
</g>
<!-- 求む！英雄&#45;&gt;強くてニューゲーム -->
<g id="edge10" class="edge"><title>求む！英雄&#45;&gt;強くてニューゲーム</title>
<path fill="none" stroke="black" d="M103.381,-148.49C165.589,-105.01 331.977,-0 488,-0 488,-0 488,-0 1337,-0 1528.63,-0 1748.25,-68.2395 1849.89,-103.879"/>
<polygon fill="black" stroke="black" points="1848.76,-107.191 1859.36,-107.223 1851.09,-100.591 1848.76,-107.191"/>
</g>
<!-- 全体像を描く -->
<g id="node4" class="node"><title>全体像を描く</title>
<ellipse fill="#7fc97f" stroke="#7fc97f" cx="489" cy="-167" rx="70.922" ry="20.5123"/>
<text text-anchor="middle" x="489" y="-166.3" font-family="Times,serif" font-size="14.00">全体像を描く</text>
</g>
<!-- ３分クッキング&#45;&gt;全体像を描く -->
<g id="edge11" class="edge"><title>３分クッキング&#45;&gt;全体像を描く</title>
<path fill="none" stroke="black" d="M327.725,-211.188C358.113,-202.81 396.197,-192.31 427.616,-183.648"/>
<polygon fill="black" stroke="black" points="428.854,-186.937 437.564,-180.905 426.994,-180.189 428.854,-186.937"/>
</g>
<!-- クラウドトーク -->
<g id="node6" class="node"><title>クラウドトーク</title>
<ellipse fill="#f0027f" stroke="#f0027f" cx="489" cy="-315" rx="80.7205" ry="20.5123"/>
<text text-anchor="middle" x="489" y="-314.3" font-family="Times,serif" font-size="14.00">クラウドトーク</text>
</g>
<!-- ３分クッキング&#45;&gt;クラウドトーク -->
<g id="edge2" class="edge"><title>３分クッキング&#45;&gt;クラウドトーク</title>
<path fill="none" stroke="black" d="M315.515,-243.266C350.104,-257.651 399.527,-278.205 436.609,-293.627"/>
<polygon fill="black" stroke="black" points="435.658,-297.022 446.236,-297.631 438.346,-290.559 435.658,-297.022"/>
</g>
<!-- 自動化ハイ -->
<g id="node7" class="node"><title>自動化ハイ</title>
<ellipse fill="#f0027f" stroke="#f0027f" cx="489" cy="-226" rx="60.623" ry="20.5123"/>
<text text-anchor="middle" x="489" y="-225.3" font-family="Times,serif" font-size="14.00">自動化ハイ</text>
</g>
<!-- ３分クッキング&#45;&gt;自動化ハイ -->
<g id="edge12" class="edge"><title>３分クッキング&#45;&gt;自動化ハイ</title>
<path fill="none" stroke="black" d="M353.078,-226C374.36,-226 397.228,-226 417.979,-226"/>
<polygon fill="black" stroke="black" points="417.98,-229.5 427.98,-226 417.98,-222.5 417.98,-229.5"/>
</g>
<!-- インディジョーンズ&#45;&gt;全体像を描く -->
<g id="edge8" class="edge"><title>インディジョーンズ&#45;&gt;全体像を描く</title>
<path fill="none" stroke="black" d="M371.919,-167C384.006,-167 396.249,-167 408.025,-167"/>
<polygon fill="black" stroke="black" points="408.237,-170.5 418.237,-167 408.237,-163.5 408.237,-170.5"/>
</g>
<!-- インディジョーンズ&#45;&gt;自動化ハイ -->
<g id="edge13" class="edge"><title>インディジョーンズ&#45;&gt;自動化ハイ</title>
<path fill="none" stroke="black" d="M333.16,-183.141C348.423,-187.318 364.826,-191.817 380,-196 396.937,-200.669 415.36,-205.776 432.114,-210.431"/>
<polygon fill="black" stroke="black" points="431.19,-213.807 441.762,-213.114 433.065,-207.063 431.19,-213.807"/>
</g>
<!-- ダッシュボード -->
<g id="node5" class="node"><title>ダッシュボード</title>
<ellipse fill="#7fc97f" stroke="#7fc97f" cx="725" cy="-227" rx="79.0525" ry="20.5123"/>
<text text-anchor="middle" x="725" y="-226.3" font-family="Times,serif" font-size="14.00">ダッシュボード</text>
</g>
<!-- 全体像を描く&#45;&gt;ダッシュボード -->
<g id="edge14" class="edge"><title>全体像を描く&#45;&gt;ダッシュボード</title>
<path fill="none" stroke="black" d="M541.958,-180.486C561.971,-185.668 585.044,-191.626 606,-197 622.945,-201.345 641.266,-206.016 658.302,-210.348"/>
<polygon fill="black" stroke="black" points="657.61,-213.784 668.164,-212.855 659.335,-206.999 657.61,-213.784"/>
</g>
<!-- まずは”効く”ところから -->
<g id="node11" class="node"><title>まずは”効く”ところから</title>
<ellipse fill="#7fc97f" stroke="#7fc97f" cx="725" cy="-167" rx="119.193" ry="21.5881"/>
<text text-anchor="middle" x="725" y="-167.21" font-family="Times,serif" font-size="14.00">まずは”効く”ところから</text>
</g>
<!-- 全体像を描く&#45;&gt;まずは”効く”ところから -->
<g id="edge9" class="edge"><title>全体像を描く&#45;&gt;まずは”効く”ところから</title>
<path fill="none" stroke="black" d="M559.891,-167C571.254,-167 583.328,-167 595.571,-167"/>
<polygon fill="black" stroke="black" points="595.883,-170.5 605.883,-167 595.883,-163.5 595.883,-170.5"/>
</g>
<!-- もっと、人間らしく -->
<g id="node17" class="node"><title>もっと、人間らしく</title>
<ellipse fill="#7fc97f" stroke="#7fc97f" cx="1336" cy="-125" rx="100.224" ry="20.5123"/>
<text text-anchor="middle" x="1336" y="-124.3" font-family="Times,serif" font-size="14.00">もっと、人間らしく</text>
</g>
<!-- 全体像を描く&#45;&gt;もっと、人間らしく -->
<g id="edge15" class="edge"><title>全体像を描く&#45;&gt;もっと、人間らしく</title>
<path fill="none" stroke="black" d="M1021,-117C1090.2,-115.195 1167.97,-117.146 1228.8,-119.573"/>
<polygon fill="black" stroke="black" points="1228.67,-123.071 1238.8,-119.983 1228.95,-116.076 1228.67,-123.071"/>
</g>
<!-- テストだけとか勿体無い！ -->
<g id="node19" class="node"><title>テストだけとか勿体無い！</title>
<ellipse fill="#7fc97f" stroke="#7fc97f" cx="1642" cy="-203" rx="129.132" ry="20.5123"/>
<text text-anchor="middle" x="1642" y="-202.3" font-family="Times,serif" font-size="14.00">テストだけとか勿体無い！</text>
</g>
<!-- 全体像を描く&#45;&gt;テストだけとか勿体無い！ -->
<g id="edge16" class="edge"><title>全体像を描く&#45;&gt;テストだけとか勿体無い！</title>
<path fill="none" stroke="black" d="M1021,-117C1223.39,-111.72 1299.45,4.09462 1476,-95 1502.79,-110.035 1488.37,-134.376 1512,-154 1526.46,-166.009 1544.18,-175.26 1561.8,-182.315"/>
<polygon fill="black" stroke="black" points="1560.96,-185.741 1571.55,-186.012 1563.44,-179.196 1560.96,-185.741"/>
<path fill="none" stroke="black" d="M536.918,-151.999C557.84,-145.951 582.928,-139.571 606,-136 787.588,-107.895 835.313,-121.792 1019,-117"/>
</g>
<!-- ビッグバン自動化 -->
<g id="node8" class="node"><title>ビッグバン自動化</title>
<ellipse fill="#f0027f" stroke="#f0027f" cx="725" cy="-404" rx="88.8516" ry="20.5123"/>
<text text-anchor="middle" x="725" y="-403.3" font-family="Times,serif" font-size="14.00">ビッグバン自動化</text>
</g>
<!-- クラウドトーク&#45;&gt;ビッグバン自動化 -->
<g id="edge18" class="edge"><title>クラウドトーク&#45;&gt;ビッグバン自動化</title>
<path fill="none" stroke="black" d="M522.122,-333.779C544.932,-346.5 576.605,-362.944 606,-374 619.744,-379.169 634.718,-383.742 649.243,-387.662"/>
<polygon fill="black" stroke="black" points="648.645,-391.123 659.206,-390.27 650.418,-384.351 648.645,-391.123"/>
</g>
<!-- ついで症候群 -->
<g id="node9" class="node"><title>ついで症候群</title>
<ellipse fill="#f0027f" stroke="#f0027f" cx="725" cy="-345" rx="70.3275" ry="20.5123"/>
<text text-anchor="middle" x="725" y="-344.3" font-family="Times,serif" font-size="14.00">ついで症候群</text>
</g>
<!-- クラウドトーク&#45;&gt;ついで症候群 -->
<g id="edge19" class="edge"><title>クラウドトーク&#45;&gt;ついで症候群</title>
<path fill="none" stroke="black" d="M561.161,-324.123C589.303,-327.731 621.648,-331.878 650.057,-335.52"/>
<polygon fill="black" stroke="black" points="649.967,-339.037 660.331,-336.837 650.857,-332.094 649.967,-339.037"/>
</g>
<!-- 建て増し旅館 -->
<g id="node10" class="node"><title>建て増し旅館</title>
<ellipse fill="#f0027f" stroke="#f0027f" cx="725" cy="-286" rx="70.922" ry="20.5123"/>
<text text-anchor="middle" x="725" y="-285.3" font-family="Times,serif" font-size="14.00">建て増し旅館</text>
</g>
<!-- クラウドトーク&#45;&gt;建て増し旅館 -->
<g id="edge3" class="edge"><title>クラウドトーク&#45;&gt;建て増し旅館</title>
<path fill="none" stroke="black" d="M561.798,-306.102C589.677,-302.647 621.602,-298.69 649.714,-295.206"/>
<polygon fill="black" stroke="black" points="650.39,-298.649 659.884,-293.946 649.529,-291.703 650.39,-298.649"/>
</g>
<!-- 自動化ハイ&#45;&gt;建て増し旅館 -->
<g id="edge20" class="edge"><title>自動化ハイ&#45;&gt;建て増し旅館</title>
<path fill="none" stroke="black" d="M537.397,-238.305C558.408,-243.748 583.432,-250.213 606,-256 624.054,-260.629 643.669,-265.629 661.629,-270.194"/>
<polygon fill="black" stroke="black" points="660.861,-273.61 671.415,-272.68 662.585,-266.826 660.861,-273.61"/>
</g>
<!-- 信頼性バトル -->
<g id="node13" class="node"><title>信頼性バトル</title>
<ellipse fill="#7fc97f" stroke="#7fc97f" cx="1020" cy="-404" rx="70.1299" ry="20.5123"/>
<text text-anchor="middle" x="1020" y="-403.3" font-family="Times,serif" font-size="14.00">信頼性バトル</text>
</g>
<!-- ビッグバン自動化&#45;&gt;信頼性バトル -->
<g id="edge22" class="edge"><title>ビッグバン自動化&#45;&gt;信頼性バトル</title>
<path fill="none" stroke="black" d="M814.307,-404C854.059,-404 900.637,-404 939.31,-404"/>
<polygon fill="black" stroke="black" points="939.478,-407.5 949.478,-404 939.478,-400.5 939.478,-407.5"/>
</g>
<!-- テスト仕分け -->
<g id="node12" class="node"><title>テスト仕分け</title>
<ellipse fill="#7fc97f" stroke="#7fc97f" cx="1020" cy="-345" rx="69.8375" ry="20.5123"/>
<text text-anchor="middle" x="1020" y="-344.3" font-family="Times,serif" font-size="14.00">テスト仕分け</text>
</g>
<!-- ついで症候群&#45;&gt;テスト仕分け -->
<g id="edge25" class="edge"><title>ついで症候群&#45;&gt;テスト仕分け</title>
<path fill="none" stroke="black" d="M795.437,-345C838.859,-345 894.909,-345 940.023,-345"/>
<polygon fill="black" stroke="black" points="940.062,-348.5 950.062,-345 940.061,-341.5 940.062,-348.5"/>
</g>
<!-- アンチ自動化 -->
<g id="node15" class="node"><title>アンチ自動化</title>
<ellipse fill="#f0027f" stroke="#f0027f" cx="1336" cy="-243" rx="70.922" ry="20.5123"/>
<text text-anchor="middle" x="1336" y="-242.3" font-family="Times,serif" font-size="14.00">アンチ自動化</text>
</g>
<!-- ついで症候群&#45;&gt;アンチ自動化 -->
<g id="edge24" class="edge"><title>ついで症候群&#45;&gt;アンチ自動化</title>
<path fill="none" stroke="black" d="M790.889,-337.843C809.354,-333.44 828.61,-326.362 844,-315 868.713,-296.755 853.43,-271.416 880,-256 942.058,-219.993 1144.99,-228.525 1257.74,-236.529"/>
<polygon fill="black" stroke="black" points="1257.8,-240.042 1268.03,-237.275 1258.31,-233.06 1257.8,-240.042"/>
</g>
<!-- ヤブ医者とブラックジャック -->
<g id="node14" class="node"><title>ヤブ医者とブラックジャック</title>
<ellipse fill="#7fc97f" stroke="#7fc97f" cx="1020" cy="-286" rx="140.014" ry="20.5123"/>
<text text-anchor="middle" x="1020" y="-285.3" font-family="Times,serif" font-size="14.00">ヤブ医者とブラックジャック</text>
</g>
<!-- 建て増し旅館&#45;&gt;ヤブ医者とブラックジャック -->
<g id="edge4" class="edge"><title>建て増し旅館&#45;&gt;ヤブ医者とブラックジャック</title>
<path fill="none" stroke="black" d="M795.809,-286C818.148,-286 843.801,-286 869.575,-286"/>
<polygon fill="black" stroke="black" points="869.838,-289.5 879.838,-286 869.838,-282.5 869.838,-289.5"/>
</g>
<!-- 験担ぎ -->
<g id="node20" class="node"><title>験担ぎ</title>
<ellipse fill="#f0027f" stroke="#f0027f" cx="1336" cy="-184" rx="41.0244" ry="20.5123"/>
<text text-anchor="middle" x="1336" y="-183.3" font-family="Times,serif" font-size="14.00">験担ぎ</text>
</g>
<!-- 建て増し旅館&#45;&gt;験担ぎ -->
<g id="edge21" class="edge"><title>建て増し旅館&#45;&gt;験担ぎ</title>
<path fill="none" stroke="black" d="M787.562,-276.368C806.404,-271.861 826.706,-265.346 844,-256 863.095,-245.681 860.126,-231.726 880,-223 1017.25,-162.738 1199.94,-170.215 1286.1,-178.245"/>
<polygon fill="black" stroke="black" points="1285.82,-181.735 1296.12,-179.223 1286.5,-174.768 1285.82,-181.735"/>
</g>
<!-- まずは”効く”ところから&#45;&gt;ダッシュボード -->
<g id="edge17" class="edge"><title>まずは”効く”ところから&#45;&gt;ダッシュボード</title>
<path fill="none" stroke="black" d="M725,-188.562C725,-191.19 725,-193.818 725,-196.445"/>
<polygon fill="black" stroke="black" points="721.5,-196.58 725,-206.58 728.5,-196.58 721.5,-196.58"/>
</g>
<!-- 俺たち全員ブラックジャック -->
<g id="node18" class="node"><title>俺たち全員ブラックジャック</title>
<ellipse fill="#7fc97f" stroke="#7fc97f" cx="1336" cy="-302" rx="140.014" ry="20.5123"/>
<text text-anchor="middle" x="1336" y="-301.3" font-family="Times,serif" font-size="14.00">俺たち全員ブラックジャック</text>
</g>
<!-- 信頼性バトル&#45;&gt;俺たち全員ブラックジャック -->
<g id="edge23" class="edge"><title>信頼性バトル&#45;&gt;俺たち全員ブラックジャック</title>
<path fill="none" stroke="black" d="M1082.15,-394.43C1108.83,-389.511 1140.29,-382.699 1168,-374 1209.13,-361.089 1253.88,-341.472 1286.7,-325.973"/>
<polygon fill="black" stroke="black" points="1288.53,-328.976 1296.06,-321.514 1285.52,-322.658 1288.53,-328.976"/>
</g>
<!-- ヤブ医者とブラックジャック&#45;&gt;俺たち全員ブラックジャック -->
<g id="edge5" class="edge"><title>ヤブ医者とブラックジャック&#45;&gt;俺たち全員ブラックジャック</title>
<path fill="none" stroke="black" d="M1152.34,-292.693C1165.87,-293.382 1179.66,-294.084 1193.29,-294.779"/>
<polygon fill="black" stroke="black" points="1193.51,-298.295 1203.68,-295.308 1193.87,-291.304 1193.51,-298.295"/>
</g>
<!-- 原住民蜂起 -->
<g id="node21" class="node"><title>原住民蜂起</title>
<ellipse fill="#f0027f" stroke="#f0027f" cx="1642" cy="-125" rx="60.623" ry="20.5123"/>
<text text-anchor="middle" x="1642" y="-124.3" font-family="Times,serif" font-size="14.00">原住民蜂起</text>
</g>
<!-- アンチ自動化&#45;&gt;原住民蜂起 -->
<g id="edge29" class="edge"><title>アンチ自動化&#45;&gt;原住民蜂起</title>
<path fill="none" stroke="black" d="M1404.09,-237.138C1427.98,-232.883 1454.32,-225.565 1476,-213 1496.69,-201.007 1492.22,-186.448 1512,-173 1533.35,-158.481 1559.67,-147.667 1582.95,-140.017"/>
<polygon fill="black" stroke="black" points="1584.23,-143.281 1592.71,-136.93 1582.12,-136.606 1584.23,-143.281"/>
</g>
<!-- 文明の曙 -->
<g id="node16" class="node"><title>文明の曙</title>
<ellipse fill="#7fc97f" stroke="#7fc97f" cx="1908" cy="-203" rx="50.8235" ry="20.5123"/>
<text text-anchor="middle" x="1908" y="-202.3" font-family="Times,serif" font-size="14.00">文明の曙</text>
</g>
<!-- 俺たち全員ブラックジャック&#45;&gt;文明の曙 -->
<g id="edge6" class="edge"><title>俺たち全員ブラックジャック&#45;&gt;文明の曙</title>
<path fill="none" stroke="black" d="M1435.3,-287.675C1523.63,-274.448 1656.79,-253.629 1772,-232 1798.92,-226.946 1828.7,-220.627 1853.43,-215.178"/>
<polygon fill="black" stroke="black" points="1854.34,-218.562 1863.34,-212.981 1852.82,-211.728 1854.34,-218.562"/>
</g>
<!-- テストだけとか勿体無い！&#45;&gt;文明の曙 -->
<g id="edge26" class="edge"><title>テストだけとか勿体無い！&#45;&gt;文明の曙</title>
<path fill="none" stroke="black" d="M1771.52,-203C1797.9,-203 1824.47,-203 1847,-203"/>
<polygon fill="black" stroke="black" points="1847.06,-206.5 1857.06,-203 1847.06,-199.5 1847.06,-206.5"/>
</g>
<!-- 験担ぎ&#45;&gt;アンチ自動化 -->
<g id="edge28" class="edge"><title>験担ぎ&#45;&gt;アンチ自動化</title>
<path fill="none" stroke="black" d="M1336,-204.281C1336,-207.068 1336,-209.855 1336,-212.642"/>
<polygon fill="black" stroke="black" points="1332.5,-212.733 1336,-222.733 1339.5,-212.733 1332.5,-212.733"/>
</g>
<!-- 原住民蜂起&#45;&gt;インディジョーンズ -->
<g id="edge30" class="edge"><title>原住民蜂起&#45;&gt;インディジョーンズ</title>
<path fill="none" stroke="black" d="M1610.91,-107.417C1578.74,-89.6603 1525.63,-63.2894 1476,-52 1278.72,-7.1283 1223.32,-38 1021,-38 724,-38 724,-38 724,-38 572.101,-38 402.139,-106.761 321.455,-143.879"/>
<polygon fill="black" stroke="black" points="319.659,-140.854 312.065,-148.242 322.609,-147.202 319.659,-140.854"/>
</g>
<!-- 原住民蜂起&#45;&gt;強くてニューゲーム -->
<g id="edge31" class="edge"><title>原住民蜂起&#45;&gt;強くてニューゲーム</title>
<path fill="none" stroke="black" d="M1702.91,-125C1731.17,-125 1765.79,-125 1798.44,-125"/>
<polygon fill="black" stroke="black" points="1798.5,-128.5 1808.5,-125 1798.5,-121.5 1798.5,-128.5"/>
</g>
</g>
</svg>
